<svg width="109" height="30" viewBox="0 0 109 30" fill="none" xmlns="http://www.w3.org/2000/svg">
<g clip-path="url(#clip0_456_6)">
<path d="M11.6484 0.0996094C11.5957 0.158203 11.3555 0.609375 11.1094 1.0957L10.6641 1.99219H8.8828H7.10156L6.79102 2.15625C6.43945 2.33789 6.12891 2.70117 6.03516 3.03516C5.95313 3.33398 5.95313 12.6621 6.03516 12.9609C6.12891 13.2949 6.43945 13.6582 6.79102 13.8398L7.10156 14.0039H15H22.8984L23.209 13.8398C23.5605 13.6582 23.8711 13.2949 23.9648 12.9609C24 12.8203 24.0234 11.0859 24.0234 7.99219C24.0234 2.77734 24.0352 2.94727 23.6719 2.50781C23.5723 2.39062 23.3613 2.22656 23.1914 2.14453L22.8867 1.99219H21.1113H19.3359L18.8906 1.0957C18.6445 0.609375 18.4043 0.158203 18.3516 0.0996094C18.2695 0.00585938 18.0352 0 15 0C11.9648 0 11.7305 0.00585938 11.6484 0.0996094ZM18.1055 1.93945C18.4395 2.61328 18.5859 2.85352 18.7207 2.93555C18.8848 3.03516 19.0488 3.04688 20.7891 3.04688H22.6816L22.8223 3.19336L22.9687 3.33398V7.99805V12.6621L22.8223 12.8027L22.6816 12.9492H15H7.31836L7.17773 12.8027L7.03125 12.6621V7.99805V3.33398L7.17773 3.19336L7.31836 3.04688H9.21094C10.9512 3.04688 11.1152 3.03516 11.2793 2.93555C11.4141 2.85352 11.5605 2.61328 11.8945 1.93945L12.3281 1.05469H15H17.6719L18.1055 1.93945Z" fill="#FA6350"/>
<path d="M14.2969 4.01908C13.9687 4.08353 13.3652 4.30033 13.0371 4.47025C12.498 4.7515 11.7363 5.54252 11.4434 6.1226C11.0977 6.79642 10.9922 7.23002 10.9922 7.9976C10.9922 9.22221 11.3848 10.107 12.2988 10.9683C13.0254 11.6539 13.9453 12.0113 15 12.0113C16.0547 12.0113 16.9746 11.6539 17.7012 10.9683C18.6152 10.107 19.0078 9.22221 19.0078 7.9976C19.0078 6.82572 18.6562 5.98783 17.8184 5.1558C16.998 4.34721 16.2949 4.04252 15.1465 4.01322C14.7598 4.0015 14.3789 4.00736 14.2969 4.01908Z" fill="#FA6350"/>
<path d="M14.7306 6.04148C14.6603 6.07663 14.5724 6.17038 14.5372 6.24655C14.3614 6.63913 14.5724 6.9614 15.0528 7.03757C15.5802 7.1196 15.8849 7.43015 15.9669 7.98093C16.0138 8.29734 16.1954 8.50241 16.4415 8.50827C16.922 8.51999 17.0978 8.25046 16.9923 7.66452C16.8692 6.99069 16.4825 6.46921 15.8966 6.18796C15.5274 6.00046 14.9415 5.93015 14.7306 6.04148Z" fill="#FA6350"/>
<path d="M21.205 4.06066C20.8183 4.35949 20.9647 4.93957 21.4511 5.01574C21.9315 5.09191 22.2362 4.47668 21.8847 4.13097C21.7265 3.96691 21.369 3.93176 21.205 4.06066Z" fill="#FA6350"/>
<path d="M13.1427 15.1289C12.9669 15.3223 12.9317 15.4922 13.0313 15.7266C13.1251 15.9492 13.3653 16.0547 13.7872 16.0547C13.9044 16.0547 14.004 16.0664 14.004 16.0781C14.004 16.0957 12.2052 19.0664 10.0079 22.6875C7.01958 27.6035 6.00591 29.3203 5.98833 29.4844C5.97075 29.6543 5.99419 29.7305 6.11724 29.8477C6.27544 30.0059 6.58599 30.0527 6.79107 29.9473C6.84966 29.9121 8.71294 26.8945 10.9337 23.2383C13.1544 19.5762 14.9825 16.582 15.0001 16.582C15.0177 16.582 16.8458 19.5762 19.0665 23.2383C21.2872 26.8945 23.1505 29.9121 23.2091 29.9473C23.5606 30.1348 24.0235 29.8887 24.0235 29.5195C24.0235 29.3672 23.1856 27.9434 20.0099 22.7109C17.8009 19.0781 15.9962 16.0899 15.9962 16.0781C15.9962 16.0664 16.0958 16.0547 16.2188 16.0547C16.6349 16.0547 16.8751 15.9492 16.9688 15.7266C17.0685 15.4922 17.0333 15.3223 16.8575 15.1289C16.7403 15 16.7286 15 15.0001 15C13.2716 15 13.2599 15 13.1427 15.1289Z" fill="#FA6350"/>
<path d="M14.7892 18.5159C14.4552 18.6507 14.4728 18.3577 14.4728 24.2757V29.7132L14.6192 29.8538C14.8185 30.0589 15.1817 30.0589 15.381 29.8538L15.5274 29.7132V24.264V18.8148L15.3985 18.6683C15.2521 18.4983 14.9767 18.4339 14.7892 18.5159Z" fill="#FA6350"/>
<path d="M48.776 6.2002L45.824 11.4802L42.944 6.2002H38.744L43.808 14.3362L38.144 23.0002H42.344L45.8 16.9762L49.136 23.0002H53.336L47.816 14.3362L52.976 6.2002H48.776Z" fill="white"/>
<path d="M56.7614 14.6003C56.7614 13.5283 56.9854 12.5763 57.4334 11.7443C57.8814 10.9123 58.4974 10.2563 59.2814 9.77627C60.0654 9.29627 60.9774 9.05626 62.0174 9.05626C63.0734 9.05626 63.9934 9.29627 64.7774 9.77627C65.5614 10.2563 66.1695 10.9123 66.6015 11.7443C67.0335 12.5763 67.2494 13.5283 67.2494 14.6003C67.2494 15.6723 67.0254 16.6243 66.5774 17.4563C66.1454 18.2883 65.5375 18.9443 64.7535 19.4243C63.9695 19.9043 63.0574 20.1443 62.0174 20.1443C60.9774 20.1443 60.0654 19.9043 59.2814 19.4243C58.4974 18.9443 57.8814 18.2883 57.4334 17.4563C56.9854 16.6243 56.7614 15.6723 56.7614 14.6003ZM53.1375 14.6003C53.1375 15.8643 53.3534 17.0403 53.7854 18.1283C54.2174 19.2003 54.8334 20.1363 55.6334 20.9363C56.4334 21.7363 57.3694 22.3603 58.4414 22.8083C59.5294 23.2403 60.7214 23.4563 62.0174 23.4563C63.3134 23.4563 64.4974 23.2403 65.5694 22.8083C66.6574 22.3603 67.5935 21.7363 68.3775 20.9363C69.1775 20.1363 69.7935 19.2003 70.2255 18.1283C70.6735 17.0403 70.8974 15.8643 70.8974 14.6003C70.8974 13.3203 70.6735 12.1523 70.2255 11.0963C69.7935 10.0243 69.1695 9.09626 68.3535 8.31226C67.5535 7.52827 66.6175 6.92827 65.5455 6.51226C64.4735 6.08026 63.2974 5.86426 62.0174 5.86426C60.7534 5.86426 59.5774 6.08026 58.4894 6.51226C57.4174 6.92827 56.4814 7.52827 55.6814 8.31226C54.8814 9.09626 54.2574 10.0243 53.8094 11.0963C53.3614 12.1523 53.1375 13.3203 53.1375 14.6003Z" fill="white"/>
<path d="M76.2146 14.6003C76.2146 13.5283 76.4386 12.5763 76.8866 11.7443C77.3346 10.9123 77.9506 10.2563 78.7346 9.77627C79.5186 9.29627 80.4306 9.05626 81.4706 9.05626C82.5266 9.05626 83.4466 9.29627 84.2306 9.77627C85.0146 10.2563 85.6226 10.9123 86.0546 11.7443C86.4866 12.5763 86.7026 13.5283 86.7026 14.6003C86.7026 15.6723 86.4786 16.6243 86.0306 17.4563C85.5986 18.2883 84.9906 18.9443 84.2066 19.4243C83.4226 19.9043 82.5106 20.1443 81.4706 20.1443C80.4306 20.1443 79.5186 19.9043 78.7346 19.4243C77.9506 18.9443 77.3346 18.2883 76.8866 17.4563C76.4386 16.6243 76.2146 15.6723 76.2146 14.6003ZM72.5906 14.6003C72.5906 15.8643 72.8066 17.0403 73.2386 18.1283C73.6706 19.2003 74.2866 20.1363 75.0866 20.9363C75.8866 21.7363 76.8226 22.3603 77.8946 22.8083C78.9826 23.2403 80.1746 23.4563 81.4706 23.4563C82.7666 23.4563 83.9506 23.2403 85.0226 22.8083C86.1106 22.3603 87.0466 21.7363 87.8306 20.9363C88.6306 20.1363 89.2466 19.2003 89.6786 18.1283C90.1266 17.0403 90.3506 15.8643 90.3506 14.6003C90.3506 13.3203 90.1266 12.1523 89.6786 11.0963C89.2466 10.0243 88.6226 9.09626 87.8066 8.31226C87.0066 7.52827 86.0706 6.92827 84.9986 6.51226C83.9266 6.08026 82.7506 5.86426 81.4706 5.86426C80.2066 5.86426 79.0306 6.08026 77.9426 6.51226C76.8706 6.92827 75.9346 7.52827 75.1346 8.31226C74.3346 9.09626 73.7106 10.0243 73.2626 11.0963C72.8146 12.1523 72.5906 13.3203 72.5906 14.6003Z" fill="white"/>
<path d="M104.956 6.20034V16.6164L93.0037 5.36035V23.0004H96.3157V12.5844L108.268 23.8404V6.20034H104.956Z" fill="white"/>
</g>
<defs>
<clipPath id="clip0_456_6">
<rect width="109" height="30" fill="white"/>
</clipPath>
</defs>
</svg>
