<svg width="130" height="36" viewBox="0 0 130 36" fill="none" xmlns="http://www.w3.org/2000/svg">
<g clip-path="url(#clip0_818_100)">
<path d="M13.9867 0.119532C13.9234 0.189844 13.635 0.731251 13.3395 1.31484L12.8048 2.39062H10.666H8.52719L8.1543 2.5875C7.73217 2.80547 7.35929 3.24141 7.24672 3.64219C7.14823 4.00078 7.14823 15.1945 7.24672 15.5531C7.35929 15.9539 7.73217 16.3898 8.1543 16.6078L8.52719 16.8047H18.0111H27.4949L27.8678 16.6078C28.2899 16.3898 28.6628 15.9539 28.7754 15.5531C28.8176 15.3844 28.8457 13.3031 28.8457 9.59063C28.8457 3.33281 28.8598 3.53672 28.4236 3.00938C28.304 2.86875 28.0507 2.67188 27.8467 2.57344L27.4808 2.39062H25.3491H23.2173L22.6826 1.31484C22.3871 0.731251 22.0987 0.189844 22.0354 0.119532C21.9369 0.00703239 21.6554 0 18.0111 0C14.3667 0 14.0852 0.00703239 13.9867 0.119532ZM21.7399 2.32734C22.1409 3.13594 22.3168 3.42422 22.4786 3.52266C22.6756 3.64219 22.8726 3.65625 24.9621 3.65625H27.2346L27.4035 3.83203L27.5793 4.00078V9.59766V15.1945L27.4035 15.3633L27.2346 15.5391H18.0111H8.7875L8.61865 15.3633L8.44276 15.1945V9.59766V4.00078L8.61865 3.83203L8.7875 3.65625H11.06C13.1495 3.65625 13.3465 3.64219 13.5435 3.52266C13.7053 3.42422 13.8812 3.13594 14.2822 2.32734L14.8029 1.26562H18.0111H21.2192L21.7399 2.32734Z" fill="#FBB42F"/>
<path d="M17.1672 4.82344C16.7733 4.90078 16.0486 5.16094 15.6546 5.36484C15.0073 5.70234 14.0927 6.65156 13.741 7.34766C13.3259 8.15625 13.1992 8.67656 13.1992 9.59766C13.1992 11.0672 13.6706 12.1289 14.7681 13.1625C15.6405 13.9852 16.7451 14.4141 18.0115 14.4141C19.2779 14.4141 20.3825 13.9852 21.2549 13.1625C22.3524 12.1289 22.8238 11.0672 22.8238 9.59766C22.8238 8.19141 22.4017 7.18594 21.3956 6.1875C20.4106 5.21719 19.5664 4.85156 18.1874 4.81641C17.7231 4.80234 17.2657 4.80937 17.1672 4.82344Z" fill="#FBB42F"/>
<path d="M17.6877 7.24937C17.6033 7.29155 17.4977 7.40405 17.4555 7.49546C17.2445 7.96655 17.4977 8.35327 18.0747 8.44468C18.7079 8.54312 19.0737 8.91577 19.1722 9.57671C19.2285 9.9564 19.4466 10.2025 19.7421 10.2095C20.319 10.2236 20.5301 9.90015 20.4034 9.19702C20.2557 8.38843 19.7913 7.76265 19.0878 7.42515C18.6445 7.20015 17.941 7.11577 17.6877 7.24937Z" fill="#FBB42F"/>
<path d="M25.4612 4.87252C24.9969 5.23111 25.1727 5.9272 25.7567 6.01861C26.3336 6.11002 26.6995 5.37173 26.2773 4.95689C26.0874 4.76002 25.6582 4.71783 25.4612 4.87252Z" fill="#FBB42F"/>
<path d="M15.7811 18.1549C15.5701 18.3869 15.5279 18.5908 15.6475 18.8721C15.76 19.1392 16.0485 19.2658 16.555 19.2658C16.6958 19.2658 16.8154 19.2799 16.8154 19.2939C16.8154 19.315 14.6555 22.8799 12.0171 27.2252C8.42903 33.1244 7.21189 35.1846 7.19079 35.3814C7.16968 35.5853 7.19782 35.6767 7.34557 35.8174C7.53553 36.0072 7.90841 36.0635 8.15465 35.9369C8.22501 35.8947 10.4623 32.2736 13.1288 27.8861C15.7952 23.4916 17.9903 19.8986 18.0114 19.8986C18.0325 19.8986 20.2276 23.4916 22.894 27.8861C25.5605 32.2736 27.7978 35.8947 27.8681 35.9369C28.2903 36.1619 28.8461 35.8666 28.8461 35.4236C28.8461 35.2408 27.84 33.5322 24.0268 27.2533C21.3744 22.8939 19.2074 19.308 19.2074 19.2939C19.2074 19.2799 19.327 19.2658 19.4748 19.2658C19.9743 19.2658 20.2628 19.1392 20.3753 18.8721C20.4949 18.5908 20.4527 18.3869 20.2417 18.1549C20.1009 18.0002 20.0869 18.0002 18.0114 18.0002C15.9359 18.0002 15.9219 18.0002 15.7811 18.1549Z" fill="#FBB42F"/>
<path d="M17.758 22.2188C17.357 22.3805 17.3781 22.0289 17.3781 29.1305V35.6555L17.554 35.8242C17.7932 36.0703 18.2294 36.0703 18.4686 35.8242L18.6445 35.6555V29.1164V22.5773L18.4897 22.4016C18.3138 22.1977 17.9832 22.1203 17.758 22.2188Z" fill="#FBB42F"/>
</g>
<path d="M58.5669 7.44062L55.0224 13.7766L51.5643 7.44062H46.5212L52.6017 17.2038L45.8008 27.6006H50.8438L54.9935 20.3718L58.9992 27.6006H64.0422L57.4142 17.2038L63.61 7.44062H58.5669Z" fill="#FBB42F"/>
<path d="M68.1552 17.5206C68.1552 16.2342 68.4242 15.0918 68.9621 14.0934C69.5001 13.095 70.2397 12.3078 71.1811 11.7318C72.1224 11.1558 73.2175 10.8678 74.4663 10.8678C75.7342 10.8678 76.8389 11.1558 77.7803 11.7318C78.7216 12.3078 79.4517 13.095 79.9704 14.0934C80.4891 15.0918 80.7485 16.2342 80.7485 17.5206C80.7485 18.807 80.4795 19.9494 79.9416 20.9478C79.4229 21.9462 78.6928 22.7334 77.7515 23.3094C76.8101 23.8854 75.715 24.1734 74.4663 24.1734C73.2175 24.1734 72.1224 23.8854 71.1811 23.3094C70.2397 22.7334 69.5001 21.9462 68.9621 20.9478C68.4242 19.9494 68.1552 18.807 68.1552 17.5206ZM63.8038 17.5206C63.8038 19.0374 64.0632 20.4486 64.5819 21.7542C65.1006 23.0406 65.8402 24.1638 66.8008 25.1238C67.7614 26.0838 68.8853 26.8326 70.1725 27.3702C71.4789 27.8886 72.9101 28.1478 74.4663 28.1478C76.0224 28.1478 77.4441 27.8886 78.7312 27.3702C80.0376 26.8326 81.1615 26.0838 82.1029 25.1238C83.0635 24.1638 83.8031 23.0406 84.3218 21.7542C84.8597 20.4486 85.1287 19.0374 85.1287 17.5206C85.1287 15.9846 84.8597 14.583 84.3218 13.3158C83.8031 12.0294 83.0539 10.9158 82.0741 9.97502C81.1135 9.03422 79.9896 8.31422 78.7024 7.81502C77.4152 7.29662 76.0032 7.03742 74.4663 7.03742C72.9485 7.03742 71.5365 7.29662 70.2301 7.81502C68.9429 8.31422 67.819 9.03422 66.8585 9.97502C65.8979 10.9158 65.1486 12.0294 64.6107 13.3158C64.0728 14.583 63.8038 15.9846 63.8038 17.5206Z" fill="#FBB42F"/>
<path d="M91.5131 17.5206C91.5131 16.2342 91.7821 15.0918 92.32 14.0934C92.8579 13.095 93.5976 12.3078 94.539 11.7318C95.4803 11.1558 96.5754 10.8678 97.8241 10.8678C99.0921 10.8678 100.197 11.1558 101.138 11.7318C102.08 12.3078 102.81 13.095 103.328 14.0934C103.847 15.0918 104.106 16.2342 104.106 17.5206C104.106 18.807 103.837 19.9494 103.299 20.9478C102.781 21.9462 102.051 22.7334 101.109 23.3094C100.168 23.8854 99.0729 24.1734 97.8241 24.1734C96.5754 24.1734 95.4803 23.8854 94.539 23.3094C93.5976 22.7334 92.8579 21.9462 92.32 20.9478C91.7821 19.9494 91.5131 18.807 91.5131 17.5206ZM87.1617 17.5206C87.1617 19.0374 87.4211 20.4486 87.9398 21.7542C88.4585 23.0406 89.1981 24.1638 90.1587 25.1238C91.1193 26.0838 92.2432 26.8326 93.5303 27.3702C94.8367 27.8886 96.268 28.1478 97.8241 28.1478C99.3803 28.1478 100.802 27.8886 102.089 27.3702C103.396 26.8326 104.519 26.0838 105.461 25.1238C106.421 24.1638 107.161 23.0406 107.68 21.7542C108.218 20.4486 108.487 19.0374 108.487 17.5206C108.487 15.9846 108.218 14.583 107.68 13.3158C107.161 12.0294 106.412 10.9158 105.432 9.97502C104.471 9.03422 103.347 8.31422 102.06 7.81502C100.773 7.29662 99.3611 7.03742 97.8241 7.03742C96.3064 7.03742 94.8944 7.29662 93.588 7.81502C92.3008 8.31422 91.1769 9.03422 90.2163 9.97502C89.2558 10.9158 88.5065 12.0294 87.9686 13.3158C87.4307 14.583 87.1617 15.9846 87.1617 17.5206Z" fill="#FBB42F"/>
<path d="M126.023 7.44062V19.9398L111.672 6.43262V27.6006H115.649V15.1014L130 28.6086V7.44062H126.023Z" fill="#FBB42F"/>
<defs>
<clipPath id="clip0_818_100">
<rect width="36.0218" height="36" fill="white"/>
</clipPath>
</defs>
</svg>
