<svg width="30" height="30" viewBox="0 0 30 30" fill="none" xmlns="http://www.w3.org/2000/svg">
<g clip-path="url(#clip0_456_18)">
<path d="M11.6484 0.0996094C11.5957 0.158203 11.3555 0.609375 11.1094 1.0957L10.6641 1.99219H8.8828H7.10156L6.79102 2.15625C6.43945 2.33789 6.12891 2.70117 6.03516 3.03516C5.95313 3.33398 5.95313 12.6621 6.03516 12.9609C6.12891 13.2949 6.43945 13.6582 6.79102 13.8398L7.10156 14.0039H15H22.8984L23.209 13.8398C23.5605 13.6582 23.8711 13.2949 23.9648 12.9609C24 12.8203 24.0234 11.0859 24.0234 7.99219C24.0234 2.77734 24.0352 2.94727 23.6719 2.50781C23.5723 2.39062 23.3613 2.22656 23.1914 2.14453L22.8867 1.99219H21.1113H19.3359L18.8906 1.0957C18.6445 0.609375 18.4043 0.158203 18.3516 0.0996094C18.2695 0.00585938 18.0352 0 15 0C11.9648 0 11.7305 0.00585938 11.6484 0.0996094ZM18.1055 1.93945C18.4395 2.61328 18.5859 2.85352 18.7207 2.93555C18.8848 3.03516 19.0488 3.04688 20.7891 3.04688H22.6816L22.8223 3.19336L22.9687 3.33398V7.99805V12.6621L22.8223 12.8027L22.6816 12.9492H15H7.31836L7.17773 12.8027L7.03125 12.6621V7.99805V3.33398L7.17773 3.19336L7.31836 3.04688H9.21094C10.9512 3.04688 11.1152 3.03516 11.2793 2.93555C11.4141 2.85352 11.5605 2.61328 11.8945 1.93945L12.3281 1.05469H15H17.6719L18.1055 1.93945Z" fill="#FA6350"/>
<path d="M14.2969 4.01908C13.9687 4.08353 13.3652 4.30033 13.0371 4.47025C12.498 4.7515 11.7363 5.54252 11.4434 6.1226C11.0977 6.79642 10.9922 7.23002 10.9922 7.9976C10.9922 9.22221 11.3848 10.107 12.2988 10.9683C13.0254 11.6539 13.9453 12.0113 15 12.0113C16.0547 12.0113 16.9746 11.6539 17.7012 10.9683C18.6152 10.107 19.0078 9.22221 19.0078 7.9976C19.0078 6.82572 18.6562 5.98783 17.8184 5.1558C16.998 4.34721 16.2949 4.04252 15.1465 4.01322C14.7598 4.0015 14.3789 4.00736 14.2969 4.01908Z" fill="#FA6350"/>
<path d="M14.7306 6.04148C14.6603 6.07663 14.5724 6.17038 14.5372 6.24655C14.3614 6.63913 14.5724 6.9614 15.0528 7.03757C15.5802 7.1196 15.8849 7.43015 15.9669 7.98093C16.0138 8.29734 16.1954 8.50241 16.4415 8.50827C16.922 8.51999 17.0978 8.25046 16.9923 7.66452C16.8692 6.99069 16.4825 6.46921 15.8966 6.18796C15.5274 6.00046 14.9415 5.93015 14.7306 6.04148Z" fill="#FA6350"/>
<path d="M21.205 4.06066C20.8183 4.35949 20.9647 4.93957 21.4511 5.01574C21.9315 5.09191 22.2362 4.47668 21.8847 4.13097C21.7265 3.96691 21.369 3.93176 21.205 4.06066Z" fill="#FA6350"/>
<path d="M13.1427 15.1289C12.9669 15.3223 12.9317 15.4922 13.0313 15.7266C13.1251 15.9492 13.3653 16.0547 13.7872 16.0547C13.9044 16.0547 14.004 16.0664 14.004 16.0781C14.004 16.0957 12.2052 19.0664 10.0079 22.6875C7.01958 27.6035 6.00591 29.3203 5.98833 29.4844C5.97075 29.6543 5.99419 29.7305 6.11724 29.8477C6.27544 30.0059 6.58599 30.0527 6.79107 29.9473C6.84966 29.9121 8.71294 26.8945 10.9337 23.2383C13.1544 19.5762 14.9825 16.582 15.0001 16.582C15.0177 16.582 16.8458 19.5762 19.0665 23.2383C21.2872 26.8945 23.1505 29.9121 23.2091 29.9473C23.5606 30.1348 24.0235 29.8887 24.0235 29.5195C24.0235 29.3672 23.1856 27.9434 20.0099 22.7109C17.8009 19.0781 15.9962 16.0899 15.9962 16.0781C15.9962 16.0664 16.0958 16.0547 16.2189 16.0547C16.6349 16.0547 16.8751 15.9492 16.9689 15.7266C17.0685 15.4922 17.0333 15.3223 16.8575 15.1289C16.7403 15 16.7286 15 15.0001 15C13.2716 15 13.2599 15 13.1427 15.1289Z" fill="#FA6350"/>
<path d="M14.7892 18.5159C14.4552 18.6507 14.4728 18.3577 14.4728 24.2757V29.7132L14.6192 29.8538C14.8185 30.0589 15.1817 30.0589 15.381 29.8538L15.5274 29.7132V24.264V18.8148L15.3985 18.6683C15.2521 18.4983 14.9767 18.4339 14.7892 18.5159Z" fill="#FA6350"/>
</g>
<defs>
<clipPath id="clip0_456_18">
<rect width="30" height="30" fill="white"/>
</clipPath>
</defs>
</svg>
