<svg width="15" height="15" viewBox="0 0 15 15" fill="none" xmlns="http://www.w3.org/2000/svg">
<g clip-path="url(#clip0_1235_5071)">
<path d="M2.91507 0.0410662C2.37014 0.175832 2.02151 0.638722 2.02151 1.22173V1.4356H1.84573C1.59378 1.4356 1.39163 1.4854 1.12796 1.61138C0.741237 1.79888 0.427761 2.1563 0.284206 2.57525L0.219753 2.76861L0.210964 7.33013C0.205105 11.1944 0.210964 11.9239 0.24612 12.0938C0.366237 12.6709 0.791042 13.1397 1.37698 13.3389C1.56741 13.4034 1.57327 13.4034 4.25979 13.4122L6.9551 13.4209L7.26272 13.7198C7.95999 14.3936 8.73049 14.7803 9.69729 14.9444C10.0196 15.0001 10.7959 14.9913 11.1299 14.9297C11.6455 14.836 12.1934 14.628 12.6416 14.3614C13.4444 13.8838 14.168 13.0254 14.4873 12.1729C14.7041 11.5958 14.7774 11.1709 14.7774 10.5176C14.7744 9.9815 14.7217 9.64751 14.5576 9.15825C14.294 8.36431 13.6992 7.53521 13.043 7.04595L12.8086 6.87017L12.7969 4.83403C12.7852 2.83306 12.7852 2.79497 12.7237 2.60747C12.4922 1.92486 11.9297 1.4854 11.2295 1.44439L10.9571 1.42681V1.27739C10.9571 1.06939 10.8867 0.767629 10.8076 0.629933C10.6963 0.433644 10.4649 0.216847 10.2715 0.126027C10.1104 0.0527849 10.0606 0.0439959 9.78518 0.0439959C9.51272 0.0439959 9.45999 0.0527849 9.30764 0.123097C9.09085 0.225636 8.83889 0.47759 8.74221 0.688527C8.69241 0.796926 8.65725 0.94634 8.63674 1.14263L8.60452 1.4356H6.48928H4.37405L4.3594 1.16021C4.34768 0.931691 4.3301 0.85259 4.25393 0.691457C4.0137 0.178761 3.45706 -0.0936995 2.91507 0.0410662ZM3.45413 0.735402C3.51272 0.767629 3.59475 0.840871 3.63284 0.899465C3.70608 1.00493 3.70608 1.01372 3.71487 1.71978L3.72366 2.43169H3.19339H2.66604V1.752C2.66604 1.12505 2.6719 1.06353 2.72757 0.94634C2.84768 0.697316 3.20217 0.591847 3.45413 0.735402ZM10.0137 0.714894C10.1221 0.770558 10.2129 0.876027 10.2686 1.002C10.3037 1.08989 10.3125 1.24224 10.3125 1.77251V2.43169H9.79983H9.28714V1.71685C9.28714 1.02544 9.29006 1.002 9.35452 0.905324C9.45999 0.747121 9.59475 0.673879 9.77639 0.673879C9.86428 0.673879 9.96975 0.691457 10.0137 0.714894ZM2.02151 2.47564V2.87114L2.10647 2.96489L2.19143 3.06157H3.19046H4.18948L4.26858 2.97954C4.35061 2.90044 4.35061 2.89165 4.3594 2.49028L4.37112 2.08013H6.48928H8.60745L8.61917 2.46685C8.62503 2.69829 8.64553 2.88286 8.66604 2.92095C8.74807 3.06743 8.80374 3.07622 9.81155 3.07622H10.752L10.8457 2.99126L10.9424 2.9063L10.9512 2.49028L10.9629 2.07134L11.1739 2.08599C11.5811 2.11236 11.9326 2.36138 12.0733 2.7188C12.1319 2.86821 12.1407 2.95611 12.1524 3.49224L12.1641 4.10161H6.50686H0.849636V3.55083C0.849636 2.7979 0.9053 2.59868 1.19534 2.33794C1.39749 2.1563 1.57327 2.08892 1.86917 2.08306L2.02151 2.08013V2.47564ZM12.1524 5.63091C12.1553 6.11138 12.1524 6.50396 12.1465 6.50396C12.1407 6.50396 12.0293 6.46587 11.9033 6.41607C11.4053 6.22857 10.9219 6.14653 10.3448 6.14946C9.44534 6.14946 8.68362 6.37798 7.93948 6.87017C6.86135 7.58208 6.16116 8.69243 5.97366 9.98443C5.92385 10.3389 5.95608 11.1622 6.03225 11.4991C6.11135 11.8536 6.24026 12.2256 6.38382 12.5127C6.4512 12.6446 6.50393 12.7559 6.50393 12.7647C6.50393 12.7706 5.41409 12.7706 4.08108 12.7676L1.6553 12.7588L1.48538 12.6915C1.27151 12.6036 1.04885 12.3868 0.943386 12.167L0.864284 11.9971L0.855495 8.37017L0.849636 4.74614L6.49514 4.752L12.1436 4.76079L12.1524 5.63091ZM10.9278 6.82915C11.9414 6.96978 12.917 7.58794 13.4912 8.44927C13.793 8.90337 14.0127 9.45708 14.0977 9.97271C14.1416 10.2393 14.1416 10.8838 14.0977 11.1504C13.875 12.5157 12.917 13.6612 11.6074 14.1329C10.8311 14.4112 9.85842 14.4053 9.0762 14.1182C8.16507 13.7842 7.40921 13.1133 6.97561 12.2491C6.42776 11.1651 6.46292 9.7647 7.06643 8.71294C7.86038 7.33013 9.33987 6.6065 10.9278 6.82915Z" fill="white"/>
<path d="M10.0488 8.33203C9.99611 8.34961 9.92287 8.40234 9.89065 8.44629C9.83205 8.52832 9.82912 8.56348 9.82033 9.71191C9.81154 11.0068 9.8174 11.0449 9.97854 11.1533C10.0547 11.2002 10.1397 11.2061 11.0186 11.2061C11.9473 11.2061 11.9795 11.2031 12.0615 11.1445C12.1524 11.0771 12.2139 10.9277 12.1934 10.8193C12.1875 10.7812 12.1406 10.7109 12.0938 10.6641L12.0088 10.5762L11.2412 10.5703L10.4737 10.5615L10.4649 9.53027L10.459 8.49902L10.3711 8.41406C10.2715 8.31152 10.1778 8.28809 10.0488 8.33203Z" fill="white"/>
</g>
<defs>
<clipPath id="clip0_1235_5071">
<rect width="15" height="15" fill="white"/>
</clipPath>
</defs>
</svg>
