<svg width="16" height="16" viewBox="0 0 16 16" fill="none" xmlns="http://www.w3.org/2000/svg">
<g clip-path="url(#clip0_1235_3796)">
<path d="M7.42195 0.0187945C7.37195 0.0250444 7.19382 0.0469198 7.03132 0.0656695C6.16257 0.162545 5.30007 0.425045 4.4407 0.850045C3.68757 1.22505 3.04382 1.68442 2.40007 2.30942C2.0282 2.6688 1.96882 2.77504 2.04382 2.95005C2.12195 3.14067 4.25632 6.82817 4.33132 6.90629C4.42195 6.99692 4.6032 7.00942 4.72195 6.93442C4.76882 6.90317 5.50632 5.66254 6.6657 3.66254C8.63132 0.268795 8.60007 0.331295 8.48132 0.15942C8.39382 0.0344195 8.2532 4.48227e-05 7.86882 0.00316954C7.67507 0.00629473 7.47507 0.0156698 7.42195 0.0187945Z" fill="white"/>
<path d="M9.44067 0.271875C9.36567 0.34375 7.3813 3.71875 7.15005 4.16875C7.0688 4.325 7.0938 4.46875 7.22192 4.575L7.3188 4.65625H11.0875C14.6157 4.65625 14.8625 4.65 14.925 4.6C15.1125 4.45 15.1063 4.30312 14.8907 3.94375C14.5375 3.34375 14.2 2.90937 13.6782 2.38125C12.6907 1.37812 11.4719 0.6625 10.1375 0.296875C9.65005 0.1625 9.56255 0.159375 9.44067 0.271875Z" fill="white"/>
<path d="M1.31879 3.69687C1.22816 3.74687 1.14379 3.875 0.928162 4.28125C-0.0187129 6.075 -0.246838 8.10312 0.284412 10.0937C0.362537 10.3937 0.406287 10.5031 0.471912 10.5719L0.556287 10.6562H2.90629H5.25629L5.34691 10.5625C5.53754 10.375 5.60941 10.525 3.57816 6.98437C2.14691 4.49062 1.71254 3.75937 1.64066 3.71562C1.53129 3.64687 1.42191 3.64062 1.31879 3.69687Z" fill="white"/>
<path d="M10.6782 5.41876C10.5875 5.50001 10.5469 5.61876 10.5688 5.72813C10.5907 5.84063 14.2469 12.1031 14.3469 12.1938C14.4532 12.2938 14.6313 12.3125 14.7407 12.2344C14.9032 12.1219 15.3313 11.2469 15.5782 10.5313C15.8719 9.67501 15.9782 9.00001 15.9813 8.01563C15.9813 7.10313 15.9 6.50313 15.6532 5.68126C15.5438 5.30938 15.7969 5.34376 13.0938 5.34376H10.7594L10.6782 5.41876Z" fill="white"/>
<path d="M11.3876 8.99055C11.3501 8.9968 11.2876 9.04055 11.2438 9.08743C11.2001 9.1343 10.3345 10.6093 9.31883 12.3656C7.34383 15.7718 7.39383 15.6749 7.53133 15.8531C7.63758 15.9874 7.77196 16.0124 8.29696 15.9906C10.3595 15.9031 12.2813 15.0499 13.7095 13.5874C14.0157 13.2749 14.0782 13.1468 13.997 12.9968C13.9782 12.9562 13.4532 12.0531 12.8345 10.9874C11.8313 9.26243 11.697 9.04993 11.6063 9.01243C11.5501 8.98743 11.4907 8.9718 11.4782 8.9718C11.4657 8.97493 11.422 8.9843 11.3876 8.99055Z" fill="white"/>
<path d="M1.07499 11.4001C0.881243 11.5563 0.893743 11.6969 1.13437 12.1001C1.49687 12.7063 1.79687 13.0876 2.32187 13.6219C3.29687 14.6126 4.53437 15.3407 5.85624 15.7032C6.34999 15.8376 6.43749 15.8407 6.55937 15.7251C6.63437 15.6563 8.61874 12.2813 8.84999 11.8313C8.93124 11.6751 8.90624 11.5313 8.77812 11.4251L8.68124 11.3438H4.91249C1.38437 11.3438 1.13749 11.3501 1.07499 11.4001Z" fill="white"/>
</g>
<defs>
<clipPath id="clip0_1235_3796">
<rect width="16" height="16" fill="white"/>
</clipPath>
</defs>
</svg>
