<svg width="20" height="20" viewBox="0 0 20 20" fill="none" xmlns="http://www.w3.org/2000/svg">
<path d="M16.6667 16.667C17.1087 16.667 17.5326 16.4914 17.8452 16.1788C18.1577 15.8662 18.3333 15.4423 18.3333 15.0003V10.9303C18.3333 10.4883 18.1577 10.0643 17.8452 9.75181C17.5326 9.43925 17.1087 9.26365 16.6667 9.26365H14.3533C14.3533 8.67865 14.3883 8.09199 14.4567 7.50699C14.56 6.88699 14.7333 6.33532 14.9733 5.85365C15.215 5.37032 15.525 4.99199 15.905 4.71532C16.2833 4.40532 16.765 4.25032 17.3517 4.25032V1.66699C16.3867 1.66699 15.5433 1.87365 14.8183 2.28699C14.0996 2.69613 13.4817 3.26107 13.01 3.94032C12.5365 4.68918 12.1876 5.50982 11.9767 6.37032C11.7641 7.31992 11.6601 8.29058 11.6667 9.26365V15.0003C11.6667 15.4423 11.8423 15.8662 12.1548 16.1788C12.4674 16.4914 12.8913 16.667 13.3333 16.667H16.6667ZM6.66667 16.667C7.1087 16.667 7.53262 16.4914 7.84518 16.1788C8.15774 15.8662 8.33334 15.4423 8.33334 15.0003V10.9303C8.33334 10.4883 8.15774 10.0643 7.84518 9.75181C7.53262 9.43925 7.1087 9.26365 6.66667 9.26365H4.35334C4.35334 8.67865 4.38834 8.09199 4.45667 7.50699C4.56 6.88699 4.73334 6.33532 4.97334 5.85365C5.215 5.37032 5.525 4.99199 5.905 4.71532C6.28334 4.40532 6.765 4.25032 7.35167 4.25032V1.66699C6.38667 1.66699 5.54334 1.87365 4.81834 2.28699C4.09965 2.69613 3.48174 3.26107 3.01 3.94032C2.53655 4.68918 2.18758 5.50982 1.97667 6.37032C1.76415 7.31992 1.66015 8.29058 1.66667 9.26365V15.0003C1.66667 15.4423 1.84227 15.8662 2.15483 16.1788C2.46739 16.4914 2.89131 16.667 3.33334 16.667H6.66667Z" fill="#FA6350"/>
</svg>
